<?xml version="1.0" encoding="UTF-8" standalone="no"?>
<svg width="144px" height="172px" viewBox="0 0 144 172" version="1.1" xmlns="http://www.w3.org/2000/svg" xmlns:xlink="http://www.w3.org/1999/xlink" xmlns:sketch="http://www.bohemiancoding.com/sketch/ns">
    <title>Portrait</title>
    <description>Created with Sketch (http://www.bohemiancoding.com/sketch)</description>
    <defs></defs>
    <g id="Page-1" stroke="none" stroke-width="1" fill="none" fill-rule="evenodd" sketch:type="MSPage">
        <g id="Portrait" sketch:type="MSArtboardGroup" transform="translate(-167.000000, -267.000000)" fill="#3ea346">
            <g id="Group" sketch:type="MSLayerGroup" transform="translate(167.000000, 267.000000)">
                <path d="M2.9540275,69.8968349 L9.77556917,71.2747397 L9.72800185,73.2365505 L0,74.986376 L0.0504796025,72.9185725 L6.90988097,72.1889265 L0.0999884433,70.8640181 L0.150468046,68.7971609 L7.01666474,67.7892841 L0.200947648,66.7435528 L0.251427251,64.6757493 L9.88235294,66.874151 L9.83478562,68.8359618 L2.9540275,69.8968349 Z M9.48787755,61.5115146 C8.45038197,62.1226251 6.72543617,61.7954843 5.4341577,61.5911412 C4.14287922,61.3867981 2.39945881,61.1651866 1.60796734,60.2643503 C1.15485305,59.7434193 0.814531165,59.1188778 0.986636805,58.0568694 C1.15874245,56.994861 1.68478285,56.4787269 2.28083233,56.1237647 C3.31832791,55.5116949 5.04424605,55.839795 6.33552453,56.0441381 C7.626803,56.2484812 9.36925106,56.4700927 10.1607425,57.370929 C10.6148292,57.8909006 10.9502893,58.5442229 10.7772113,59.6062312 C10.6041333,60.6682396 10.083927,61.1565524 9.48787755,61.5115146 Z M3.10096246,59.0171588 C3.49107364,59.3205079 4.63620863,59.5421104 5.74587897,59.7302263 C6.8555493,59.9173572 8.00815053,60.0847902 8.46919103,59.9252364 C8.69317831,59.851369 8.8742347,59.6996944 8.92836496,59.3461153 C8.98249522,58.9925363 8.85930221,58.7610848 8.66797974,58.6172894 C8.27786856,58.3139402 7.13366685,58.0923378 6.02399651,57.9042219 C4.9133929,57.7170909 3.75985838,57.5506428 3.29881789,57.7092117 C3.07669717,57.7830792 2.8900411,57.9613461 2.83591084,58.31591 C2.78178058,58.6694891 2.91150655,58.8733634 3.10096246,59.0171588 Z M8.98723547,50.6445 L12.5674962,51.6641771 L12.0248284,53.4277929 L2.82352941,50.8092028 L3.60000628,48.2868436 C4.19270733,46.3603755 5.40408821,46.1234995 7.16294782,46.6240851 C8.14533057,46.9035248 8.9776137,47.3023277 9.26819116,48.319229 L13.6470588,48.1600779 L13.0793744,49.9977175 L9.16716257,50.0597124 L8.98723547,50.6445 Z M6.81321248,50.147139 L7.02175492,49.4151264 C7.2101441,48.7557701 6.6432241,48.5423421 6.16129829,48.3943048 C5.67849626,48.2471757 5.10281397,48.1100369 4.91442479,48.7693931 L4.70588235,49.5014058 L6.81321248,50.147139 Z M6.91997407,39.3678474 L13.8920167,42.6133418 L14.9432442,40.430515 L16.4705882,41.1417419 L14.6170337,44.9918256 L6.11764706,41.034177 L6.91997407,39.3678474 Z M17.8191116,38.8991826 L9.88235294,33.5808579 L11.3448376,31.2806728 C11.9273607,30.3656712 12.6039618,30.1013158 13.2492035,30.0115715 C14.3999955,29.8515925 15.7969106,30.8543874 16.8336687,31.5489302 C17.8713771,32.2454239 19.3281601,33.155548 19.647455,34.2997877 C19.8280086,34.94263 19.8641193,35.6849713 19.2815962,36.5999729 L17.8191116,38.8991826 Z M12.2352941,32.8423533 L17.3309171,36.0871935 L17.7395958,35.4766952 C17.9291694,35.1932827 17.9167852,34.9052242 17.7796063,34.6794235 C17.5357328,34.2584863 16.5735755,33.6470588 15.6914393,33.08488 C14.809303,32.521772 13.8700089,31.9242828 13.3774986,31.8741049 C13.110762,31.8443698 12.8335464,31.9484426 12.6439728,32.231855 L12.2352941,32.8423533 Z M26.8235294,27.2973663 L25.4605877,28.5885559 L18.8235294,21.9239309 L20.7528513,20.096143 C22.2304062,18.6959569 23.4835103,19.0918845 24.7786392,20.3942532 C26.0833193,21.7040746 26.472049,22.9552057 24.9944941,24.3553918 L24.4281139,24.89199 L26.8235294,27.2973663 Z M23.14878,23.9019074 L23.7611912,23.3152867 C24.3116503,22.7877285 23.797753,22.2051121 23.3519014,21.7526334 C22.9060498,21.3001546 22.3403565,20.7856102 21.7888818,21.3131684 L21.1764706,21.8997891 L23.14878,23.9019074 Z M29.8444182,12.653951 L30.8244655,14.0455986 L28.8447138,15.5003726 L30.0765593,17.2526052 L31.7801754,16.0006006 L32.7602227,17.3922482 L31.0566066,18.6442529 L32.3352547,20.4605683 L34.3150064,19.0057944 L35.2941176,20.397442 L31.8035767,22.9645777 L26.3529412,15.2201301 L29.8444182,12.653951 Z M37.7798132,14.9801103 L39.4937251,18.3186896 L37.8169274,19.2152589 L33.4117647,10.6342263 L35.8089574,9.35202538 C37.6389698,8.37289013 38.6477131,9.07810064 39.4899185,10.7167923 C39.9600309,11.6327888 40.2388628,12.5274154 39.6897639,13.4822665 L42.8235294,16.5372074 L41.0753584,17.4726312 L38.334622,14.6838442 L37.7798132,14.9801103 Z M37.4138732,13.5912807 L38.1682043,13.1880169 C38.846596,12.8250795 38.5620765,12.1757214 38.2917323,11.6504445 C38.0213882,11.1251676 37.6680169,10.5275101 36.9896252,10.8904475 L36.2352941,11.2937112 L37.4138732,13.5912807 Z M45.8395479,14.3562033 C45.2311116,14.0918941 44.838944,13.5380589 44.4881079,12.6461321 L46.274008,11.9820903 C46.4133813,12.3360591 46.5392978,12.5835571 46.7757518,12.7049713 C46.9180086,12.7778197 47.1342775,12.8095742 47.4101404,12.7068392 C47.6869645,12.6041041 47.8340274,12.4658788 47.8897767,12.276286 C47.9570603,12.0829574 47.9157289,11.8326575 47.7763557,11.4777547 C47.4495494,10.6474689 47.2525044,10.5512716 46.510462,10.5335264 L45.2013145,10.501772 C44.1516897,10.4718854 43.5913131,10.1478031 43.0568887,8.79263473 C42.7387332,7.98569781 42.7387332,7.21518513 43.1011036,6.56235074 C43.3894621,6.04960957 43.8527581,5.65174484 44.5313617,5.39957706 C45.3243475,5.10444735 45.9789212,5.08576825 46.5085396,5.29497412 C47.1717641,5.55181168 47.6485167,6.17382556 47.9945469,7.05361095 L46.209608,7.71765279 C46.0894586,7.41318354 45.9789212,7.1311292 45.7491956,6.99196994 C45.5963656,6.89483864 45.410855,6.86588604 45.1474876,6.96395129 C44.8956545,7.05734677 44.7716604,7.21611908 44.7236006,7.38796676 C44.6678513,7.57569167 44.7024544,7.77369008 44.8177977,8.06601792 C45.0350278,8.61705124 45.1984309,8.7375314 45.795333,8.75340863 L47.0881401,8.7767575 C48.3972876,8.80851196 48.9163328,9.17555619 49.5382259,10.7520718 C49.8842561,11.6337251 50.012095,12.2856256 49.720853,12.8992339 C49.4670975,13.4269183 48.8951865,13.948999 48.0262663,14.2721474 C47.146773,14.5990315 46.3960798,14.5980976 45.8395479,14.3562033 Z M55.021071,11.7205528 L53.188154,12.1852861 L50.8235294,3.13516812 L53.4173876,2.47742065 C55.4053463,1.97333498 56.2880381,2.92903643 56.7493586,4.69614716 C57.2144839,6.4754384 56.9167657,7.7572027 54.9288069,8.26128837 L54.1678658,8.45430258 L55.021071,11.7205528 Z M53.8107097,7.02997275 L54.5535451,6.83004772 C55.2215494,6.65021086 55.0837507,5.9260805 54.9404766,5.3406541 C54.7972024,4.75809744 54.5873104,4.06649077 53.919306,4.24728421 L53.1764706,4.44720924 L53.8107097,7.02997275 Z M63.5099071,0.46866485 L63.7671827,2.19718813 L61.3764706,2.59052233 L61.7006192,4.76606066 L63.7569659,4.42738332 L64.0142415,6.1559066 L61.9578947,6.49458394 L62.2941176,8.75015553 L64.6839009,8.35682133 L64.9411765,10.0853446 L60.7263158,10.7792916 L59.2941176,1.16163579 L63.5099071,0.46866485 Z M68.2518658,8.98097836 C67.4439977,8.10055332 67.4114533,6.3686646 67.3482788,5.07312688 C67.2851043,3.77662379 67.1463117,2.02349674 67.864204,1.06680681 C68.2796243,0.519437301 68.8213937,0.0579864598 69.8924889,0.00489065167 C70.6831276,-0.0346898598 71.2698849,0.166108833 71.7743238,0.602459838 C72.2931206,1.04943 72.6377089,1.79084056 72.723856,2.70794997 L70.8219201,2.80255705 C70.7951188,2.5332165 70.755874,2.26484132 70.6381397,2.06693876 C70.5194482,1.84200561 70.3251387,1.71554105 69.9776788,1.73291786 C69.6302189,1.75029467 69.4636679,1.92213201 69.3669918,2.14320365 C69.1602388,2.5998276 69.1927833,3.80365438 69.2502146,4.96500451 C69.307646,6.12635464 69.3928359,7.32728528 69.6426624,7.76170553 C69.7613539,7.97215801 69.9422628,8.12565316 70.2906798,8.10827635 C70.6390969,8.09089954 70.8334064,7.93161212 70.9281681,7.69799056 C71.0258015,7.48946884 71.0392021,7.21723215 71.0401593,6.94692622 L72.941138,6.85231914 C72.9449668,7.77329007 72.6625958,8.55814265 72.1887869,9.05627787 C71.7293359,9.53896703 71.164594,9.79768843 70.3739553,9.83726894 C69.3028601,9.89036475 68.7189744,9.48587123 68.2518658,8.98097836 Z M77.2597941,9.70225706 L77.8241212,1.84121283 L76.2352941,1.72270463 L76.3593325,0 L81.4117647,0.37479424 L81.2896201,2.09749887 L79.700793,1.98091763 L79.1383596,9.84196185 L77.2597941,9.70225706 Z M86.1176471,1.24237919 L84.6494649,10.7792916 L82.8235294,10.4742421 L84.2917116,0.9373297 L86.1176471,1.24237919 Z M89.2493343,1.8746594 L91.3469872,2.39461177 L90.6543753,9.21165831 L93.4317589,2.91071976 L95.5294118,3.43067214 L90.9308255,12.1852861 L88.9411765,11.6922444 L89.2493343,1.8746594 Z M103.058824,6.3043519 L102.427762,7.86659655 L100.152173,6.94917731 L99.35534,8.91561281 L101.312573,9.70425497 L100.681511,11.2674396 L98.7242785,10.4787974 L97.8982472,12.5176113 L100.173836,13.4350306 L99.5427747,14.9972752 L95.5294118,13.3805118 L99.0464024,4.6866485 L103.058824,6.3043519 Z M103.1237,16.1553288 C102.944141,15.5110776 103.143432,14.8456401 103.645604,13.9904905 L105.347464,14.9429038 C105.149161,15.282845 105.027811,15.5409308 105.081086,15.8047945 C105.115617,15.9636906 105.227101,16.1514768 105.491506,16.2988168 C105.755911,16.4461568 105.964081,16.4702319 106.156465,16.3903024 C106.356742,16.3161509 106.5363,16.1216236 106.734604,15.7816824 C107.203232,14.9852761 107.152917,14.7714887 106.684288,14.1830917 L105.859503,13.1468969 C105.202436,12.3129333 105.103778,11.6667561 105.865422,10.3686234 C106.320238,9.59532931 106.950666,9.09263997 107.719217,8.94722601 C108.325967,8.83648027 108.952449,8.93759595 109.59965,9.29872334 C110.355374,9.72148315 110.798351,10.2174314 110.970017,10.7634561 C111.190026,11.4471906 110.989749,12.2214477 110.496456,13.0640783 L108.792622,12.111665 C108.964288,11.8189111 109.122142,11.5502323 109.089585,11.2825165 C109.068866,11.0995453 108.972181,10.9377602 108.719615,10.7961983 C108.480861,10.6623404 108.270718,10.6690814 108.099052,10.7441959 C107.908641,10.8241255 107.769533,10.9791695 107.603786,11.2603674 C107.295972,11.7871319 107.302878,11.9932152 107.676794,12.4660514 L108.49566,13.4839491 C109.320446,14.520144 109.358923,15.1634323 108.472968,16.6734263 C107.978689,17.5170199 107.527819,18.0428214 106.835236,18.2151995 C106.238351,18.3635025 105.440204,18.2585348 104.613445,17.7962917 C103.772873,17.3273076 103.287473,16.7437257 103.1237,16.1553288 Z M113.421203,23.9019074 L112,22.626647 L118.361894,15.4659401 L120.373031,17.2705537 C121.913944,18.6536096 121.597909,19.9413819 120.355792,21.3398372 C119.103142,22.7469546 117.848576,23.2291474 116.306705,21.8460915 L115.717729,21.3167381 L113.421203,23.9019074 Z M116.705882,19.8680828 L117.351341,20.42238 C117.931945,20.9212476 118.49299,20.3798179 118.925355,19.9136143 C119.35669,19.4493904 119.843615,18.8624291 119.263011,18.3635616 L118.617552,17.8092643 L116.705882,19.8680828 Z M122.665406,28.043868 L119.767038,30.3350127 L118.588235,28.8535135 L126.040636,22.9645777 L127.724913,25.0818197 C129.012441,26.6982599 128.522227,27.8167491 127.097363,28.9418903 C126.301957,29.5709811 125.491291,30.0081136 124.466991,29.643203 L122.106524,33.2752044 L120.879081,31.7328867 L123.056433,28.5342167 L122.665406,28.043868 Z M123.764706,26.7562418 L124.223197,27.3679284 C124.635927,27.91919 125.132259,27.5529217 125.529149,27.2210492 C125.925158,26.8901063 126.365169,26.4699204 125.950679,25.9195885 L125.492188,25.3079019 L123.764706,26.7562418 Z M124.893226,35.7637569 C125.307727,34.6623649 126.858701,33.8573201 127.993227,33.2240434 C129.127754,32.5907666 130.623266,31.6941751 131.8152,31.8989755 C132.499225,32.0188356 133.164762,32.2906444 133.7077,33.2070553 C134.251611,34.12441 134.17377,34.8379081 133.935384,35.4730724 C133.520882,36.5744644 131.968936,37.3795092 130.835382,38.0127859 C129.701828,38.6460627 128.206316,39.543598 127.014382,39.3378538 C126.330358,39.2170499 125.652171,38.9244779 125.10826,38.008067 C124.564349,37.0916561 124.655812,36.3989212 124.893226,35.7637569 Z M131.487707,33.7455374 C130.995639,33.7666978 129.96135,34.3168687 128.972484,34.8697997 C127.985509,35.4227307 126.97677,36.0179825 126.708026,36.4200305 C126.578385,36.6113943 126.525393,36.8331187 126.69667,37.1247645 C126.868894,37.4145702 127.107358,37.505652 127.343929,37.4918517 C127.835996,37.4697713 128.870285,36.9205204 129.859152,36.3675894 C130.847072,35.8155785 131.855811,35.2194067 132.12361,34.8182787 C132.253251,34.6259949 132.292048,34.38127 132.119824,34.0905443 C131.947601,33.7998185 131.724278,33.7317371 131.487707,33.7455374 Z M132.103004,41.2568644 C133.280861,40.7631339 134.841522,40.0495465 135.970936,40.3973374 C136.618757,40.6001365 137.228584,40.9488751 137.640834,41.9268594 C137.950496,42.6612954 137.946697,43.3388717 137.718724,43.9254728 C137.449907,44.5859913 136.865727,45.1195235 136.083972,45.4910059 L135.351611,43.7529988 C135.713517,43.5852632 136.34994,43.2469488 136.071624,42.5854826 C135.93769,42.2680168 135.723016,42.1704079 135.485545,42.1552453 C134.993504,42.1163913 133.891637,42.5504192 132.836315,42.9939238 C131.782893,43.4364806 130.700974,43.9197869 130.383712,44.2969553 C130.229831,44.4770105 130.148141,44.6987628 130.283974,45.0162286 C130.525245,45.5914578 131.134121,45.524174 131.611913,45.3232702 L132.519054,44.9423112 L132.21509,44.2201949 L133.62472,43.6279078 L134.661994,46.0880313 L132.443063,47.0195803 C130.700024,47.7530686 129.342638,47.1683628 128.713814,45.6757995 C128.299664,44.6978151 128.476343,44.0192911 128.784106,43.4146845 C129.32364,42.367521 130.927046,41.7515425 132.103004,41.2568644 Z M135.020258,51.6538906 L131.358301,52.657467 L130.823529,50.8531046 L140.233543,48.2724796 L140.999885,50.8512182 C141.584699,52.8206425 140.676078,53.6601002 138.878462,54.1533995 C137.874662,54.4288171 136.929735,54.5231382 136.101576,53.8015818 L132.421956,56.239782 L131.864616,54.3599627 L135.19688,52.2509431 L135.020258,51.6538906 Z M136.470588,51.2458115 L136.672359,51.9857042 C136.855708,52.6523402 137.44523,52.5158996 137.928603,52.3721333 C138.41373,52.2274513 138.969916,52.0223325 138.788322,51.3556965 L138.586551,50.6158038 L136.470588,51.2458115 Z M134.596589,60.086214 L133.046092,60.0336334 L132.705882,58.1144414 L142.738166,58.9162956 L143.058824,60.7312653 L133.869244,64.6757493 L133.528056,62.7565574 L134.974926,62.2129115 L134.596589,60.086214 Z M136.728021,61.3950954 L140.235294,60.11776 L136.470588,59.9891008 L136.728021,61.3950954 Z M135.931156,71.5333249 L135.911593,70.5544922 L139.222665,69.4760522 L134.153839,69.5670396 L134.117647,67.6630089 L143.872839,67.4877384 L143.903162,69.1638218 L139.155172,70.9941049 L143.967721,72.6519909 L144,74.3424407 L134.244808,74.5177112 L134.212529,72.6108071 L139.294071,72.5198197 L135.931156,71.5333249 Z M8.51355192,121.698578 C9.70856622,121.263661 11.2969002,120.625586 12.3902912,121.061489 C13.0188499,121.314944 13.5984789,121.718302 13.9447508,122.762694 C14.2044547,123.545742 14.1583478,124.248907 13.8948801,124.841617 C13.5862465,125.510265 12.975566,126.025064 12.1795171,126.359388 L11.5650727,124.506307 C11.9348685,124.35739 12.5850692,124.047721 12.3507711,123.342584 C12.2378563,123.002343 12.0327279,122.887943 11.7993708,122.856384 C11.3147784,122.784391 10.1978634,123.161122 9.12799628,123.550673 C8.05812915,123.940225 6.95721046,124.372183 6.62034816,124.742996 C6.45568083,124.9215 6.36252618,125.143396 6.47449996,125.483637 C6.67774648,126.096071 7.28278128,126.067471 7.76831466,125.889954 L8.68951072,125.554644 L8.4345116,124.784417 L9.8657059,124.2637 L10.7360903,126.886022 L8.48250037,127.706546 C6.71350282,128.350539 5.4093376,127.656249 4.88146121,126.064513 C4.53518934,125.02012 4.75160926,124.326817 5.09411729,123.720301 C5.69444731,122.667032 7.31759666,122.134481 8.51355192,121.698578 Z M11.7777528,132.255641 L8.38590071,133.905165 L7.52941176,132.18631 L16.2482548,127.945504 L17.4720889,130.402937 C18.4055546,132.277789 17.6737876,133.281177 16.0085549,134.091013 C15.0780123,134.544559 14.1728038,134.803591 13.2305685,134.224862 L10.0852371,137.318801 L9.19367014,135.526762 L12.0613004,132.823778 L11.7777528,132.255641 Z M13.1764706,131.421161 L13.5617236,132.191393 C13.9085551,132.886955 14.5679503,132.613844 15.1027354,132.354032 C15.6375206,132.096265 16.2449949,131.754622 15.8981634,131.05906 L15.5129104,130.288828 L13.1764706,131.421161 Z M22.5882353,139.058358 L21.1686108,140.009817 L19.776691,137.960813 L17.9902187,139.157014 L19.1872507,140.919537 L17.7676262,141.870048 L16.5705942,140.107524 L14.7172486,141.34831 L16.1091685,143.397315 L14.689544,144.348774 L12.2352941,140.733609 L20.1349408,135.444142 L22.5882353,139.058358 Z M26.8235294,144.765572 L25.5581977,145.870182 L23.9464956,144.039446 L22.3545056,145.429086 L23.7409262,147.004697 L22.4755945,148.109307 L21.089174,146.533696 L19.4380476,147.973801 L21.0497497,149.804537 L19.7834793,150.910082 L16.9411765,147.680359 L23.9812265,141.536785 L26.8235294,144.765572 Z M24.9940628,155.638123 L23.5294118,154.435056 L29.6136409,147.160763 L30.8928205,148.210368 L29.4444221,153.018847 L32.4177019,149.462694 L33.8823529,150.665762 L27.7981238,157.940054 L26.5514495,156.916974 L27.9673426,152.082918 L24.9940628,155.638123 Z M33.0055087,160.972038 C32.8269376,160.327852 33.0262269,159.662481 33.5274098,158.808381 L35.2312342,159.759735 C35.0319449,160.099642 34.9105955,160.357702 34.9638709,160.621539 C34.9984012,160.780419 35.1118579,160.967224 35.3752749,161.115512 C35.6396785,161.262837 35.847847,161.28691 36.038257,161.206988 C36.2414925,161.133807 36.419077,160.938337 36.6183663,160.59843 C37.0860054,159.802103 37.0366764,159.588337 36.5690373,159.000963 L35.7432694,157.964872 C35.0862069,157.130992 34.9875488,156.48488 35.7501755,155.185915 C36.2030159,154.412699 36.8334408,153.91006 37.601987,153.76466 C38.2097205,153.653926 38.8352125,153.755031 39.4824093,154.116122 C40.2381299,154.53884 40.6801179,155.034738 40.8517829,155.581671 C41.072777,156.264374 40.8725011,157.038553 40.3782243,157.881099 L38.6743999,156.929744 C38.8460649,156.63702 39.0039178,156.368368 38.970374,156.100679 C38.9496559,155.918689 38.8539576,155.75692 38.6023795,155.615373 C38.3626405,155.480565 38.1515123,155.487306 37.9808339,155.562413 C37.7904238,155.642334 37.651316,155.797363 37.4865571,156.078532 C37.1777574,156.605244 37.1836769,156.811306 37.5585774,157.285058 L38.3784258,158.302853 C39.203207,159.338944 39.2397105,159.982167 38.3537613,161.49201 C37.860471,162.334556 37.4105904,162.860304 36.7180109,163.032665 C36.1221163,163.180953 35.3229862,163.075996 34.4952452,162.612836 C33.6556652,162.143899 33.1692811,161.561339 33.0055087,160.972038 Z M49.6186328,162.822854 L49.0259044,164.395786 L46.963092,163.689457 L45.5957086,167.313351 L43.7647059,166.686229 L47.0648144,157.940054 L51.2941176,159.388121 L50.7013892,160.961053 L48.3021106,160.139178 L47.5558205,162.116525 L49.6186328,162.822854 Z M53.3635376,168.173585 L52.7501698,169.572093 L50.8235294,169.150229 L55.2131504,160.283379 L57.0361364,160.68309 L57.4117647,170.594005 L55.4841733,170.171178 L55.4984377,168.64168 L53.3635376,168.173585 Z M55.50274,167.313351 L55.5294118,163.564033 L54.1176471,166.989826 L55.50274,167.313351 Z M63.4560472,167.565396 L63.1161189,171.199351 L61.1764706,171.031948 L62.050292,161.689373 L64.8245769,161.929192 C66.9425161,162.110701 67.4313467,163.225152 67.2638316,165.009213 C67.1707677,166.007046 66.9229237,166.8845 65.9276294,167.367898 L66.9709251,171.531335 L64.948009,171.35829 L64.0986782,167.621824 L63.4560472,167.565396 Z M63.5294118,165.835003 L64.4210519,165.903187 C65.2242737,165.964097 65.3339976,165.345899 65.3893922,164.825885 C65.4437216,164.305871 65.4628966,163.693127 64.6596748,163.632216 L63.7680347,163.564033 L63.5294118,165.835003 Z M75.010675,170.101241 L74.0106061,170.153562 L72.7881909,166.975329 L73.0624507,171.898213 L71.117165,172 L70.5882353,162.526184 L72.3013797,162.435812 L74.3406974,166.986745 L75.863819,162.249361 L77.5896969,162.158038 L78.1176471,171.631854 L76.1713818,171.733641 L75.8981015,166.79744 L75.010675,170.101241 Z M82.6796618,170.674416 C82.1375808,170.292399 81.8589322,169.654412 81.6820426,168.67901 L83.5431873,168.329959 C83.6135628,168.717793 83.6896443,168.993155 83.8960155,169.160894 C84.0225011,169.26173 84.2269702,169.33348 84.5141781,169.279183 C84.8013859,169.224886 84.9706673,169.109506 85.0600631,168.928193 C85.1618222,168.743003 85.1675283,168.479275 85.0971529,168.091441 C84.9335776,167.18391 84.7604921,167.051077 84.0424725,166.896913 L82.7738127,166.62349 C81.7581241,166.400485 81.2731043,165.967081 81.0039658,164.484585 C80.8441945,163.604202 80.9868474,162.816899 81.4604551,162.217695 C81.8361077,161.745508 82.3610703,161.426514 83.0667267,161.292711 C83.8931625,161.137578 84.5341495,161.237445 85.0096591,161.550621 C85.6078503,161.934577 85.9549723,162.655948 86.1299599,163.617776 L84.2707171,163.966827 C84.2098519,163.63329 84.1537417,163.326901 83.9587828,163.14171 C83.8265911,163.014694 83.6525546,162.950702 83.37771,163.00209 C83.1161797,163.051539 82.9649676,163.190189 82.886984,163.356958 C82.7975882,163.53924 82.7937841,163.746731 82.8517963,164.066694 C82.9611635,164.667837 83.0971593,164.821031 83.674428,164.947077 L84.9278715,165.209835 C86.1965312,165.482288 86.6330491,165.952537 86.9449834,167.675489 C87.120922,168.637318 87.1247261,169.326693 86.7272,169.899717 C86.38198,170.392267 85.7276787,170.817914 84.8232593,170.988561 C83.9055257,171.161148 83.1779959,171.022497 82.6796618,170.674416 Z M95.0934812,166.133861 L95.2740162,167.625193 L93.4166798,168.250681 L92.7058824,158.532423 L94.4611361,157.940054 L99.7647059,166.11115 L97.9092599,166.737585 L97.1521472,165.440241 L95.0934812,166.133861 Z M96.4705882,164.479247 L94.5882353,161.220708 L95.0311999,164.970027 L96.4705882,164.479247 Z M103.114932,164.240076 C102.063279,163.748102 101.391003,162.182557 100.853553,161.025084 C100.314244,159.867611 99.5387546,158.323995 99.827006,157.17701 C99.9962375,156.517231 100.310525,155.887962 101.250596,155.428405 C101.944259,155.089934 102.545868,155.047983 103.159565,155.250112 C103.789998,155.458915 104.37487,156.001421 104.79051,156.805169 L103.121441,157.621312 C102.997772,157.385812 102.862015,157.156034 102.683485,157.021599 C102.494727,156.861422 102.273424,156.821377 101.967505,156.970114 C101.662517,157.119803 101.576971,157.341001 101.571392,157.57936 C101.556515,158.075148 102.032595,159.159207 102.516113,160.195593 C102.997772,161.23198 103.520344,162.29411 103.905299,162.594443 C104.088478,162.740319 104.310711,162.810873 104.615699,162.66023 C104.920688,162.511493 105.035059,162.292203 105.035059,162.042402 C105.044357,161.815484 104.955092,161.562823 104.855599,161.315883 L106.524668,160.49974 C106.873359,161.335905 106.909623,162.160628 106.671583,162.795618 C106.439122,163.411539 106.029061,163.865375 105.334468,164.204799 C104.393467,164.664356 103.72212,164.520387 103.114932,164.240076 Z M112.08197,158.732823 L112.64303,160.140593 L110.963718,161.220708 L107.764706,151.931143 L109.35212,150.910082 L116.705882,157.528885 L115.025603,158.608048 L113.943143,157.535552 L112.08197,158.732823 Z M112.470588,156.216599 L110.117647,153.722071 L111.33204,157.002725 L112.470588,156.216599 Z M120.345594,154.190736 L113.882353,147.304128 L115.89494,145.541939 C116.69573,144.840232 117.427054,144.763817 118.083122,144.842095 C119.253433,144.979082 120.376468,146.253897 121.220674,147.152231 C122.06488,148.050565 123.264135,149.253625 123.29308,150.392385 C123.308517,151.031656 123.158971,151.72684 122.358182,152.428547 L120.345594,154.190736 Z M116.705882,147.403645 L121.010801,151.847411 L121.592682,151.352512 C121.864561,151.123374 121.929772,150.837891 121.851519,150.582459 C121.718088,150.110098 120.907467,149.271492 120.16005,148.502379 C119.416647,147.732326 118.623081,146.91438 118.134501,146.742527 C117.869645,146.64674 117.560646,146.679608 117.28977,146.908746 L116.705882,147.403645 Z M123.252802,137.787466 L124.61429,138.855588 L123.038188,140.800755 L124.749273,142.144984 L126.106877,140.471147 L127.468365,141.539269 L126.110761,143.213106 L127.885939,144.606059 L129.463984,142.660893 L130.823529,143.729015 L128.042287,147.160763 L120.470588,141.218259 L123.252802,137.787466 Z M134.004344,135.347876 L133.531285,136.221636 L130.156148,135.539772 L134.54595,137.963311 L133.623966,139.662125 L125.176471,134.999151 L125.98743,133.502948 L130.9729,134.232542 L127.674998,130.390727 L128.493681,128.882834 L136.941176,133.546782 L136.018227,135.246571 L131.616841,132.815239 L134.004344,135.347876 Z M139.621079,127.008174 L136.191312,125.882441 L129.882353,125.820578 L130.55635,123.880305 L134.117253,124.217744 L131.07607,122.387139 L131.750067,120.446866 L136.805527,124.115575 L140.235294,125.241308 L139.621079,127.008174 Z" id="Shape" sketch:type="MSShapeGroup"></path>
                <path d="M24,100.330329 C24,100.330329 24,148.098093 71.9999957,148.098093 C71.9999957,148.098093 119.999991,148.098093 119.999991,100.330329 L119.999991,71.6696709 C120.000951,71.6696709 120.000951,23.9019074 71.9999957,23.9019074 C71.9999957,23.9019074 24,23.9019074 24,71.6696709 L24,100.330329 Z M62.9030645,62.3235693 C62.5592005,61.8426526 62.2134207,61.4304382 61.8685989,60.9504757 C56.2135202,54.2853893 49.9387199,53.1174486 46.1447215,56.1403539 C42.4896097,59.300664 42.6275384,65.6899866 48.2136527,72.3541188 C48.5584746,72.8359897 48.9722609,73.2472499 49.3180406,73.6604184 C48.83529,73.5220595 48.2136527,73.3846547 47.6619378,73.3159523 C39.041391,71.8044996 33.4552766,74.8961073 32.5587398,79.6375267 C31.8010895,84.3770376 35.9379941,89.2568159 44.5585409,90.7682686 C45.1792203,90.8360168 45.7309353,90.9734216 46.2836081,91.042124 C45.7309353,91.2482312 45.2491425,91.5239949 44.7663919,91.7988045 C37.1803107,96.1938493 34.9035285,102.170958 37.2492751,106.362758 C39.7999991,110.485856 46.0757571,111.516391 53.6618383,107.187186 C54.1445889,106.912377 54.6273396,106.568865 55.1100902,106.293101 C54.9041549,106.774018 54.6963039,107.323637 54.4903687,107.873256 C51.5239427,116.049795 53.5928739,122.095606 58.1445227,123.812211 C62.7651357,125.392366 68.2133213,122.095606 71.2477538,113.919067 C71.4546469,113.369448 71.5925757,112.888531 71.7314622,112.338912 C71.9373975,112.888531 72.0753263,113.369448 72.2822194,113.919067 C75.3166519,122.095606 80.7667531,125.392366 85.3854505,123.812211 C89.9370992,122.095606 92.0060305,116.049795 89.0405624,107.873256 C88.8327114,107.323637 88.6248604,106.774018 88.419883,106.293101 C88.9026336,106.567911 89.3872999,106.911423 89.8700505,107.187186 C97.454216,111.516391 103.730932,110.485856 106.282614,106.362758 C108.62836,102.170958 106.351578,96.1948035 98.765497,91.7988045 C98.2808307,91.5239949 97.7310314,91.2482312 97.2463651,91.042124 C97.7980801,90.9734216 98.3497951,90.8360168 98.9714323,90.7682686 C107.591979,89.2568159 111.729842,84.3779918 110.970276,79.6375267 C110.073739,74.8961073 104.487624,71.8044996 95.8670776,73.3159523 C95.2463982,73.3846547 94.7636476,73.5220595 94.2109748,73.6604184 C94.5567545,73.2472499 94.9724564,72.8359897 95.3144048,72.3541188 C100.900519,65.6899866 101.041321,59.300664 97.383336,56.1403539 C93.5912532,53.1174486 87.3145373,54.2853893 81.6594586,60.9504757 C81.3155946,61.4304382 80.9707727,61.8426526 80.624993,62.3235693 C80.624993,61.7052478 80.6939574,61.1556286 80.6939574,60.6060095 C80.6958731,51.8817597 76.626975,46.9342332 71.7314622,46.866485 C66.9029982,46.9342332 62.8341001,51.8817597 62.8341001,60.6060095 C62.8341001,61.1556286 62.9030645,61.7052478 62.9030645,62.3235693 Z" id="Shape" sketch:type="MSShapeGroup"></path>
                <path d="M71.7307735,106.461251 C67.3299164,116.965039 55.5061339,112.639389 58.8738542,101.794278 C48.6990802,106.940819 42.4429692,96.0947553 51.9999618,89.9185244 C40.9305028,87.3776699 43.0617055,75.0213943 54.336455,76.3933604 C47.5303562,67.3320916 57.1551424,59.3005125 64.9237198,67.6066755 C65.4737076,56.2114436 78.0537233,56.2114436 78.6046659,67.538983 C86.3732433,59.3005125 95.9980295,67.3320916 89.1919307,76.3933604 C100.467635,75.0213943 102.598838,87.3776699 91.5303336,89.9185244 C101.086371,96.0957088 94.8293055,106.940819 84.6545315,101.794278 C88.0241615,112.639389 76.1994242,116.964085 71.7307735,106.461251 Z M89.8823529,86.4344265 C89.8823529,76.5053126 81.7689474,68.4250681 71.731282,68.4250681 C61.7604643,68.4250681 53.6470588,76.5053126 53.6470588,86.4344265 C53.6470588,96.4320171 61.7604643,104.512262 71.731282,104.512262 C81.7689474,104.512262 89.8823529,96.4320171 89.8823529,86.4344265 Z" id="Shape" sketch:type="MSShapeGroup"></path>
                <path d="M62.8163925,97.4822888 C62.112238,97.6995043 61.4090602,97.9887912 60.7058824,98.3481476 C62.4638269,100.005792 64.5030426,101.37515 66.8235294,102.168937 C65.2062204,100.798578 63.8711592,99.2130055 62.8163925,97.4822888 Z M59.4465007,87.640327 L55.5294118,87.640327 C55.7346699,91.1977141 57.0416391,94.4814561 59.1715503,97.013624 C59.9964016,96.6706174 60.7525152,96.3285609 61.6470588,95.9865045 C60.271352,93.3868754 59.5849306,90.5820125 59.4465007,87.640327 Z M83.2941176,98.3481476 C82.5928931,97.9877902 81.8887386,97.6985033 81.1845842,97.4822888 C80.1298174,99.2130055 78.7947562,100.797577 77.1764706,102.168937 C79.497934,101.37515 81.5371497,100.005792 83.2941176,98.3481476 Z M81.8823529,95.9865045 C82.7759418,96.3276108 83.5311008,96.6706174 84.3569068,97.013624 C86.4877726,94.4814561 87.7956966,91.1977141 88,87.640327 L84.0810017,87.640327 C83.9444812,90.5820125 83.2571051,93.3868754 81.8823529,95.9865045 Z M55.5294118,85.7656676 L59.4465007,85.7656676 C59.5849306,82.8927611 60.271352,80.0179539 61.6470588,77.4177977 C60.7525152,77.144097 59.9964016,76.8029216 59.1715503,76.3923706 C57.0416391,78.9915764 55.7346699,82.2075591 55.5294118,85.7656676 Z M88,85.7656676 C87.7947419,82.2075591 86.4877726,78.9915764 84.3569068,76.3923706 C83.5301461,76.8029216 82.7749871,77.144097 81.8823529,77.4177977 C83.2561504,80.0179539 83.9444812,82.8927611 84.0810017,85.7656676 L88,85.7656676 Z M83.2941176,75.0706016 C81.5361731,73.3663657 79.497934,72.0881889 77.1764706,71.2370572 C78.7937796,72.6562675 80.1288408,74.2184837 81.1845842,75.9237057 C81.8887386,75.6386802 82.5919165,75.3556271 83.2941176,75.0706016 Z M64,97.2977249 C65.3960784,99.5522252 67.1889273,101.535236 69.5141869,103.106267 L69.6470588,103.106267 C68.650519,101.192552 67.8542099,98.9371026 67.2553633,96.5449591 C66.1259516,96.7518985 65.0629758,96.9559901 64,97.2977249 Z M61.1764706,87.640327 C61.3109021,90.4358717 61.9830599,93.1615278 63.1257281,95.6076294 C64.3365457,95.259157 65.5454961,94.9786319 66.8235294,94.768966 C66.4193012,92.4626416 66.2176539,90.0873993 66.1504381,87.640327 L61.1764706,87.640327 Z M63.0585123,77.7983651 C61.9167777,80.3143554 61.3109021,83.0409821 61.1764706,85.7656676 L66.1504381,85.7656676 C66.2176539,83.3904252 66.4193012,81.0132416 66.8235294,78.7078878 C65.5454961,78.4972513 64.2683963,78.2186675 63.0585123,77.7983651 Z M69.5141869,70.2997275 C67.1889273,71.8191883 65.3960784,73.8221139 64,76.1713307 C65.0629758,76.446637 66.1259516,76.7238619 67.2553633,76.8610354 C67.8542099,74.4437115 68.650519,72.2335867 69.6470588,70.2997275 L69.5141869,70.2997275 Z M62.8163925,75.9237057 C63.8711592,74.2184837 65.2062204,72.6562675 66.8235294,71.2370572 C64.5030426,72.0881889 62.4638269,73.3663657 60.7058824,75.0706016 C61.4090602,75.3556271 62.112238,75.6386802 62.8163925,75.9237057 Z M71.8001612,70.2997275 C70.6665771,72.2984453 69.743755,74.6417695 69.1764706,77.1918577 C70.0273973,77.2617362 70.8783239,77.3297003 71.7302355,77.3297003 C72.6520727,77.3297003 73.5010296,77.2617362 74.3529412,77.1918577 C73.7856567,74.6417695 72.8638195,72.2984453 71.8001612,70.2997275 Z M75.2941176,85.7656676 C75.2941176,83.5562476 75.0190367,81.3468276 74.6773272,79.2043597 C73.7178755,79.2713118 72.7584238,79.3382639 71.7313916,79.3382639 C70.770988,79.3382639 69.8115363,79.2713118 68.8520845,79.2043597 C68.5094232,81.3468276 68.2352941,83.5562476 68.2352941,85.7656676 L75.2941176,85.7656676 Z M74.6774104,94.6702997 C75.0190738,92.3979853 75.2941176,90.0546611 75.2941176,87.640327 L68.2352941,87.640327 C68.2352941,90.0546611 68.5093862,92.3979853 68.8520014,94.6702997 C69.8113237,94.5282801 70.7706461,94.5282801 71.7309202,94.5282801 C72.7587656,94.5292663 73.718088,94.5292663 74.6774104,94.6702997 Z M74.3529412,96.214554 C73.5011917,96.1449407 72.6523962,96.0762943 71.7297497,96.0762943 C70.8780002,96.0762943 70.0272354,96.1439738 69.1764706,96.214554 C69.7446318,98.7206314 70.6672784,101.087482 71.8006468,103.106267 C72.8641028,101.087482 73.7857646,98.7206314 74.3529412,96.214554 Z M73.4117647,103.106267 L73.5464601,103.106267 C75.8694946,101.535236 77.6638957,99.5522252 79.0588235,97.2977249 C77.9960214,96.9550409 76.9332193,96.7518985 75.8030695,96.5449591 C75.2070884,98.9380519 74.4081417,101.192552 73.4117647,103.106267 Z M76.2352941,94.768966 C77.5137501,94.9786319 78.7884707,95.259157 79.9996887,95.6076294 C81.1436687,93.1615278 81.7469431,90.4358717 81.8823529,87.640327 L76.9067403,87.640327 C76.8395023,90.0873993 76.6387222,92.4626416 76.2352941,94.768966 Z M76.9067403,85.7656676 L81.8823529,85.7656676 C81.7469431,83.0409821 81.1436687,80.3143554 79.9996887,77.7983651 C78.7884707,78.2186675 77.5137501,78.4972513 76.2352941,78.7078878 C76.6387222,81.0132416 76.8385685,83.3904252 76.9067403,85.7656676 Z M75.8030695,76.8610354 C76.9332193,76.7238619 77.9960214,76.446637 79.0588235,76.1713307 C77.6638957,73.8221139 75.8694946,71.8191883 73.5464601,70.2997275 L73.4117647,70.2997275 C74.4081417,72.2335867 75.2061659,74.4437115 75.8030695,76.8610354 Z" id="Shape" sketch:type="MSShapeGroup"></path>
            </g>
        </g>
    </g>
</svg>